<?xml version="1.0" encoding="UTF-8" standalone="no"?>
<svg
   xmlns:dc="http://purl.org/dc/elements/1.1/"
   xmlns:cc="http://creativecommons.org/ns#"
   xmlns:rdf="http://www.w3.org/1999/02/22-rdf-syntax-ns#"
   xmlns:svg="http://www.w3.org/2000/svg"
   xmlns="http://www.w3.org/2000/svg"
   xmlns:sodipodi="http://sodipodi.sourceforge.net/DTD/sodipodi-0.dtd"
   xmlns:inkscape="http://www.inkscape.org/namespaces/inkscape"
   viewBox="0 0 128.7 68.138"
   version="1.1"
   height="68.826mm"
   width="128.7mm">
  <path
     style="fill:#020202;fill-opacity:1;stroke:#020202;stroke-width:0.13355;stroke-miterlimit:4;stroke-dasharray:none;stroke-opacity:1"
     d="M 64.361,66.192 C 56.813,60.308 49.265,54.413 41.74,48.541 39.062,47.494 36.373,46.437 33.685,45.39 31.007,45.687 28.33,45.985 25.663,46.293 24.837,47.605 24.021,48.926 23.195,50.226 22.346,49.642 21.498,49.069 20.65,48.486 19.889,48.178 19.118,47.869 18.369,47.549 17.664,47.682 16.98,47.792 16.275,47.924 14.821,48.2 13.366,48.475 11.912,48.738 10.755,49.091 9.5868,49.444 8.4298,49.785 7.383,50.149 6.3252,50.512 5.2674,50.865 4.3309,51.405 3.3833,51.956 2.4467,52.496 1.6864,53.499 0.90409,54.501 0.1438,55.504 0.11074,53.102 0.11074,50.7 0.07768,48.288 4.9699,38.349 9.8512,28.421 14.744,18.482 18.666,14.57 22.578,10.648 26.512,6.7575 28.506,5.3801 30.522,4.0248 32.55,2.6695 32.693,3.3747 32.847,4.0909 33.002,4.7961 33.42,5.6776 33.839,6.5591 34.247,7.4296 34.787,7.937 35.316,8.4439 35.844,8.9618 38.742,9.7221 41.651,10.482 44.56,11.243 46.378,11.617 48.208,11.992 50.037,12.367 51.359,12.686 52.703,13.006 54.036,13.336 54.058,12.444 54.103,11.551 54.125,10.659 54.18,9.4576 54.246,8.2566 54.301,7.0329 55.215,8.1574 56.13,9.2593 57.045,10.372 59.513,10.35 61.992,10.328 64.46,10.306 66.686,10.24 68.901,10.174 71.127,10.108 72.195,9.1932 73.275,8.2896 74.344,7.3745 74.289,8.2786 74.256,9.1711 74.212,10.064 74.267,11.055 74.311,12.047 74.377,13.028 75.688,12.741 77,12.444 78.322,12.146 79.931,11.882 81.539,11.595 83.148,11.309 86.608,10.317 90.057,9.3254 93.528,8.3337 93.913,7.8599 94.288,7.3855 94.663,6.9117 94.905,6.2176 95.114,5.5013 95.346,4.7961 95.434,4.0028 95.555,3.2094 95.665,2.4271 98.387,4.1901 101.12,5.9311 103.85,7.6836 107.59,11.496 111.32,15.298 115.06,19.11 119.58,28.245 124.09,37.368 128.62,46.492 128.62,49.267 128.61,52.022 128.61,54.788 127.88,54.193 127.13,53.609 126.4,53.003 125.61,52.474 124.83,51.934 124.05,51.394 123.02,50.953 121.98,50.512 120.94,50.061 119.74,49.664 118.55,49.278 117.36,48.893 115.9,48.574 114.44,48.255 112.99,47.935 111.68,47.759 110.36,47.56 109.04,47.373 108.45,47.781 107.86,48.189 107.28,48.585 106.74,49.102 106.2,49.609 105.66,50.127 105.09,49.289 104.5,48.475 103.92,47.649 103.07,47.12 102.22,46.591 101.36,46.073 98.673,45.753 95.963,45.456 93.274,45.125 83.633,52.154 74.002,59.173 64.361,66.192 Z"
     id="2017-movie-title"
     inkscape:connector-curvature="0" />
  <path
     id="2013-comics-sigil"
     d="M 63.925,54.091 C 63.925,54.091 60.607,50.452 58.585,49.088 55.298,46.875 51.549,45.376 47.787,44.134 44.282,42.991 40.63,42.143 36.95,41.897 33.992,41.688 28.075,42.5 28.075,42.5 28.075,42.5 25.919,39.746 24.725,38.48 23.931,37.632 23.114,36.796 22.197,36.083 21.281,35.37 20.267,34.793 19.255,34.227 17.966,33.514 16.67,32.777 15.277,32.298 13.893,31.818 12.43,31.585 10.981,31.363 9.6347,31.167 8.2728,31.068 6.9133,31.019 5.7432,30.97 4.5693,30.97 3.4004,31.032 2.304,31.093 0.12101,31.351 0.12101,31.351 0.12101,31.351 2.867,28.487 4.2977,27.111 6.2385,25.242 8.1179,23.288 10.274,21.678 12.115,20.301 14.18,19.244 16.168,18.088 18.298,16.847 22.628,14.487 22.628,14.487 22.628,14.487 24.833,16.749 26.046,17.757 27.517,18.973 29.089,20.08 30.701,21.1 32.293,22.108 33.949,23.03 35.644,23.853 37.479,24.751 39.367,25.549 41.288,26.238 43.115,26.902 44.974,27.479 46.863,27.934 48.69,28.377 52.413,28.917 52.413,28.917 52.413,28.917 52.829,26.705 53.087,25.611 53.496,23.878 54.473,20.461 54.473,20.461 54.985,22.206 55.495,23.964 56.006,25.709 56.006,25.709 61.283,25.771 63.925,25.771 66.556,25.771 71.829,25.709 71.829,25.709 72.357,23.89 72.874,22.059 73.402,20.24 73.402,20.24 74.25,23.878 74.656,25.709 74.89,26.779 75.332,28.917 75.332,28.917 75.332,28.917 79.278,28.377 81.207,27.934 83.285,27.455 85.325,26.852 87.329,26.127 89.136,25.476 90.918,24.726 92.639,23.853 94.31,23.005 95.92,22.034 97.469,20.989 98.895,20.031 100.26,18.973 101.59,17.867 102.85,16.81 105.24,14.524 105.24,14.524 105.24,14.524 109.9,16.749 112.11,18.088 113.9,19.17 115.57,20.436 117.25,21.678 119.1,23.042 120.96,24.382 122.69,25.906 124.76,27.737 128.55,31.781 128.55,31.781 128.55,31.781 126.04,31.056 124.76,30.921 123.52,30.773 122.27,30.872 121.03,30.921 119.47,30.982 117.89,31.044 116.34,31.277 115.11,31.474 113.88,31.732 112.7,32.15 111.33,32.654 110.04,33.392 108.75,34.104 107.73,34.645 106.72,35.186 105.82,35.874 104.8,36.636 103.89,37.558 103,38.48 101.85,39.709 99.768,42.389 99.768,42.389 99.768,42.389 93.216,41.86 89.947,42.143 86.198,42.475 82.424,43.126 78.872,44.38 75.43,45.597 72.173,47.355 69.174,49.432 67.244,50.747 63.925,54.091 63.925,54.091 Z"
     style="fill:#020202;fill-opacity:1;stroke:#1A1717;stroke-width:0.12293;stroke-miterlimit:4;stroke-dasharray:none;stroke-opacity:1"
     inkscape:connector-curvature="0" />
  <path
     id="2008-tv-sigil"
     d="M 64.35,60.112 C 63.872,59.379 57.773,50.954 53.22,47.823 49.48,45.23 44.905,41.67 40.522,42.868 39.519,43.137 38.866,44.317 38.594,45.319 38.213,46.714 39.193,49.648 39.193,49.648 39.193,49.648 36.478,46.893 34.902,45.802 33.271,44.675 31.45,43.816 29.627,43.029 28.241,42.421 26.845,41.724 25.346,41.527 23.873,41.33 21.939,40.794 20.898,41.849 19.907,42.868 20.367,44.711 20.673,46.106 21.009,47.627 22.019,48.95 22.873,50.256 23.738,51.598 24.751,52.85 25.815,54.048 26.783,55.121 28.931,57.071 28.931,57.071 24.377,55.944 11.784,51.741 5.7866,45.552 2.8263,42.493 0.05907,38.2 0.45975,33.961 0.97491,28.487 5.6167,23.818 10.017,20.545 18.803,13.98 34.424,10.975 41.13,9.8483 41.13,9.8483 38.089,11.691 37.034,13.068 36.388,13.909 35.922,14.946 35.791,16.002 35.698,16.753 35.798,17.576 36.14,18.255 36.535,19.042 37.234,19.686 37.991,20.116 38.796,20.599 39.767,20.706 40.685,20.867 42.998,21.26 47.708,21.386 47.708,21.386 47.708,21.386 48.409,20.42 48.756,19.937 51.466,16.163 56.835,8.5962 56.835,8.5962 56.954,13.122 57.07,17.665 57.188,22.191 57.188,22.191 61.96,22.048 64.348,22.03 66.797,22.03 71.696,22.155 71.696,22.155 71.757,17.629 71.818,13.122 71.879,8.5962 71.879,8.5962 77.05,16.019 79.73,19.651 80.207,20.295 81.193,21.565 81.193,21.565 81.193,21.565 84.133,21.296 85.595,21.082 86.974,20.885 88.373,20.742 89.709,20.348 90.348,20.169 91.065,20.044 91.555,19.579 92.338,18.864 92.947,17.808 93.011,16.735 93.088,15.465 92.424,14.195 91.691,13.14 90.712,11.744 87.781,9.8483 87.781,9.8483 92.97,10.832 109.28,14.123 118.1,20.116 122.25,22.942 126.44,26.788 127.82,31.617 128.74,34.801 128.26,38.719 126.42,41.455 120.81,49.809 107.04,54.996 100.39,56.713 100.39,56.713 102.66,54.316 103.75,53.082 104.7,51.991 105.77,50.989 106.52,49.755 107.25,48.575 107.94,47.287 108.16,45.927 108.36,44.639 108.75,42.94 107.81,42.028 106.5,40.758 104.13,41.384 102.33,41.706 100.51,42.028 98.889,43.065 97.25,43.906 95.624,44.747 93.964,45.587 92.553,46.75 91.532,47.591 89.891,49.701 89.891,49.701 89.891,49.701 90.634,46.839 90.199,45.516 89.829,44.371 89.038,43.065 87.876,42.779 83.742,41.759 79.56,45.194 76.056,47.609 71.353,50.846 64.813,59.432 64.35,60.112 Z"
     style="fill:none;fill-opacity:1;stroke:#1A1717;stroke-width:0.17889;stroke-miterlimit:4;stroke-dasharray:none;stroke-opacity:1"
     inkscape:connector-curvature="0" />
  <path
     id="1966-tv-logo-scenes"
     d="M 64.373,68.418 C 64.373,68.418 62.712,54.724 59.353,48.921 57.938,46.501 56.123,43.218 53.331,43.077 52.197,43.013 51.31,44.235 50.666,45.175 49.572,46.732 48.929,50.606 48.929,50.606 48.929,50.606 48.375,47.684 48.027,46.243 47.808,45.393 47.654,44.506 47.294,43.708 46.882,42.755 46.431,41.751 45.646,41.069 45.118,40.606 44.411,40.053 43.728,40.194 42.261,40.49 41.45,42.202 40.717,43.501 40.061,44.635 39.88,45.986 39.571,47.26 39.263,48.522 39.018,49.808 38.851,51.096 38.709,52.265 38.632,54.621 38.632,54.621 38.632,54.621 33.895,46.809 32.454,42.511 30.896,37.877 29.956,32.948 29.88,28.056 29.815,23.449 30.626,18.802 31.913,14.375 33.097,10.295 35.659,4.7476 37.088,2.752 38.169,4.5545 40.961,7.1931 43.213,9.0724 44.848,10.424 46.65,11.595 48.517,12.586 50.37,13.577 52.301,14.452 54.321,15.031 56.008,15.508 57.796,16.279 59.495,15.855 60.087,15.7 60.653,15.263 60.962,14.735 61.336,14.092 61.671,13.049 61.272,12.508 60.075,10.939 59.469,7.8237 59.456,5.3654 59.444,3.6407 60.679,0.31941 60.679,0.31941 61.426,1.7094 62.159,3.113 62.906,4.503 62.906,4.503 63.871,4.5159 64.348,4.5159 64.836,4.5159 65.801,4.503 65.801,4.503 66.664,3.3833 67.488,2.1084 68.157,0.40954 68.157,0.40954 69.316,3.6407 69.303,5.3268 69.289,7.8366 68.62,10.616 67.501,12.65 67.205,13.19 67.475,14.259 67.913,14.877 68.312,15.456 69.019,15.855 69.715,15.958 71.696,16.254 73.666,15.212 75.571,14.556 78.157,13.654 80.693,12.535 83.036,11.106 84.619,10.141 86.087,8.9437 87.451,7.6692 89.033,6.1762 91.788,2.7648 91.788,2.7648 91.788,2.7648 96.036,10.797 97.233,15.147 98.365,19.253 98.944,23.565 98.802,27.812 98.635,33.385 97.58,38.997 95.701,44.248 94.427,47.813 90.257,54.209 90.257,54.209 90.257,54.209 90.128,52.29 90.012,51.338 89.831,49.911 89.677,48.482 89.317,47.093 88.982,45.805 88.621,44.506 87.952,43.347 87.283,42.163 86.678,40.528 85.353,40.207 84.607,40.026 83.782,40.593 83.216,41.107 82.341,41.918 82.032,43.167 81.556,44.261 81.195,45.059 80.887,45.883 80.655,46.732 80.346,47.826 79.985,50.104 79.985,50.104 79.985,50.104 79.47,47.183 78.685,45.986 77.914,44.776 76.909,43.051 75.467,43.115 72.366,43.257 70.59,47.17 69.097,49.898 66.021,55.483 64.373,68.418 64.373,68.418 Z"
     style="fill:#040303;fill-opacity:1;stroke:#1A1717;stroke-width:0.12871;stroke-miterlimit:4;stroke-dasharray:none;stroke-opacity:1"
     inkscape:connector-curvature="0" />
  <path
     id="1965-comics-title"
     d="M 64.342,68.202 C 64.342,68.202 63.167,58.255 61.073,53.799 59.898,51.297 58.781,47.238 56.012,47.227 54.313,47.215 53.592,49.692 52.847,51.216 51.672,53.578 50.916,58.883 50.916,58.883 50.427,57.51 50.288,56.277 49.88,55.009 49.531,53.95 49.194,52.88 48.694,51.891 48.019,50.553 47.356,49.135 46.262,48.122 45.552,47.471 44.68,46.563 43.737,46.75 41.841,47.11 40.875,49.472 40.049,51.216 39.537,52.31 39.549,53.578 39.363,54.764 39.142,56.149 38.921,57.533 38.816,58.93 38.711,60.407 38.735,63.386 38.735,63.386 36.326,60.651 33.278,54.741 31.591,49.959 29.637,44.446 28.415,38.582 28.241,32.742 28.078,26.797 28.962,20.77 30.637,15.069 32.138,9.9269 33.906,5.5053 37.408,0.50253 37.408,0.50253 38.735,3.8532 39.642,5.4006 40.503,6.8787 41.562,8.2399 42.679,9.5314 43.807,10.846 45.029,12.079 46.344,13.196 47.565,14.22 48.868,15.139 50.241,15.93 51.707,16.791 53.254,17.524 54.848,18.117 56.175,18.606 58.92,19.246 58.92,19.246 58.92,19.246 59.49,16.035 59.746,14.418 60.084,12.277 60.665,7.9724 60.665,7.9724 61.026,9.0776 61.375,10.195 61.736,11.3 61.736,11.3 63.504,11.149 64.388,11.149 65.249,11.149 66.948,11.3 66.948,11.3 67.332,10.148 67.727,9.0078 68.111,7.856 68.111,7.856 68.833,11.975 69.124,14.045 69.368,15.744 69.74,19.141 69.74,19.141 69.74,19.141 73.719,18.141 75.615,17.373 76.884,16.849 78.105,16.186 79.28,15.465 80.618,14.65 81.91,13.755 83.085,12.731 84.225,11.73 85.249,10.613 86.191,9.4383 87.273,8.112 88.25,6.6809 89.135,5.2144 90.007,3.7601 91.461,0.70031 91.461,0.70031 93.335,2.7829 96.837,10.288 98.326,15.535 99.943,21.247 100.65,27.274 100.44,33.207 100.23,39.059 99.082,44.946 97.116,50.471 95.452,55.137 90.042,63.548 90.042,63.548 90.042,63.548 90.019,61.256 89.949,60.116 89.844,58.371 89.774,56.614 89.472,54.892 89.193,53.333 88.948,51.716 88.239,50.297 87.634,49.065 87.006,47.506 85.714,47.017 84.876,46.691 83.841,47.04 83.085,47.517 81.898,48.262 81.27,49.669 80.572,50.89 79.967,51.949 79.548,53.112 79.152,54.264 78.664,55.742 77.989,58.79 77.989,58.79 77.989,58.79 77.186,52.915 75.767,50.39 75.069,49.158 74.231,47.378 72.812,47.331 71.125,47.261 69.903,49.251 69.007,50.692 65.831,55.823 64.342,68.202 64.342,68.202 Z"
     style="fill:#040303;fill-opacity:1;stroke:#1A1717;stroke-width:0.11634;stroke-miterlimit:4;stroke-dasharray:none;stroke-opacity:1"
     inkscape:connector-curvature="0" />
  <path
     style="fill:#040303;fill-opacity:1;stroke:#040303;stroke-width:0.13871;stroke-miterlimit:4;stroke-dasharray:none;stroke-opacity:1"
     d="M 62.806,68.065 C 62.806,68.065 60.867,64.423 59.422,62.99 57.754,61.333 55.721,59.947 53.5,59.136 51.033,58.231 48.26,57.691 45.675,58.149 42.761,58.654 39.495,60.04 37.803,62.202 37.18,60.299 35.676,59.277 34.231,58.243 32.997,57.35 31.517,56.798 30.048,56.398 28.65,56.022 27.181,55.811 25.748,55.928 23.469,56.116 20.766,56.856 19.133,57.796 18.452,56.292 17.735,55.329 16.83,54.248 16.043,53.332 15.209,52.403 14.175,51.804 12.706,50.97 11.026,50.453 9.3458,50.335 8.0886,50.253 5.6212,50.946 5.6212,50.946 5.6212,50.946 9.1813,40.184 11.578,35.061 13.987,29.927 16.76,24.957 19.979,20.292 23.01,15.886 26.535,11.809 30.189,7.9082 32.633,5.2992 35.982,1.8331 37.967,0.56415 37.967,0.56415 39.601,2.4206 40.482,3.2783 41.304,4.0772 42.15,4.8527 43.067,5.5459 44.136,6.3572 45.264,7.0857 46.427,7.7554 47.567,8.4134 48.753,9.0126 49.964,9.5296 51.515,10.199 53.101,10.799 54.722,11.245 55.968,11.586 58.517,11.985 58.517,11.985 58.294,10.916 58.306,9.3416 58.388,8.0256 58.494,6.3807 59.152,3.149 59.152,3.149 59.751,4.183 60.35,5.2287 60.949,6.2632 60.949,6.2632 63.57,5.0054 64.991,4.935 66.425,4.8527 69.198,5.8285 69.198,5.8285 69.832,4.8175 70.466,3.8188 71.101,2.8083 71.489,6.3102 71.547,6.1575 71.594,7.8494 71.63,9.2711 71.406,12.126 71.406,12.126 71.406,12.126 73.721,11.844 74.861,11.597 76.141,11.315 77.387,10.94 78.621,10.505 79.972,10.023 81.288,9.4591 82.568,8.8481 83.931,8.1901 85.283,7.5087 86.54,6.698 87.738,5.9107 88.878,5.0289 89.935,4.0655 91.157,2.961 93.319,0.49366 93.319,0.49366 97.596,4.7822 99.875,7.5792 102.8,11.409 105.79,15.322 108.62,19.376 111.01,23.676 113.83,28.787 116.24,34.145 118.16,39.655 120.34,45.835 122.45,54.812 123.12,58.666 123.12,58.666 120.84,55.54 119.28,54.471 117.79,53.473 116.02,52.721 114.23,52.58 112.28,52.427 110.22,52.873 108.48,53.766 106.74,54.659 104.73,56.903 104.18,57.761 102,57.432 101.29,57.503 99.84,57.632 98.383,57.773 96.915,58.043 95.563,58.572 94.435,59.018 93.366,59.641 92.438,60.405 91.369,61.298 90.77,61.838 89.7,63.554 88.114,61.909 86.845,60.898 85.083,60.17 82.651,59.171 79.901,58.748 77.281,58.983 74.121,59.265 70.925,60.334 68.269,62.073 66.013,63.565 62.806,68.065 62.806,68.065 Z"
     id="1966-tv-title"
     inkscape:connector-curvature="0" />
  <path
     style="fill:#040303;fill-opacity:1;stroke:#040303;stroke-width:0.12538;stroke-miterlimit:4;stroke-dasharray:none;stroke-opacity:1"
     d="M 64.355,58.903 C 63.496,57.893 60.663,55.303 58.443,54.072 56.591,53.039 54.537,52.238 52.429,52.017 50.746,51.843 48.96,52.017 47.391,52.644 46.422,53.039 45.458,53.596 44.883,54.537 44.17,53.445 43.427,53.225 42.57,52.772 41.614,52.273 40.566,51.843 39.489,51.75 37.161,51.541 34.736,51.924 32.547,52.749 31.185,53.26 28.884,55.117 28.884,55.117 26.853,54.072 25.318,53.887 23.493,54.038 20.826,54.281 18.333,55.628 16.012,56.964 13.385,58.473 11.07,60.505 8.8918,62.607 7.2314,64.209 4.4052,67.878 4.4052,67.878 4.5759,60.377 5.405,53.48 7.3232,46.92 9.4736,39.582 12.881,32.58 16.898,26.066 19.864,21.247 23.52,16.835 27.494,12.818 31.869,8.3938 40.264,2.2624 41.936,0.97358 41.936,0.97358 40.059,3.1217 39.817,4.457 39.64,5.4439 39.929,6.5127 40.385,7.4068 40.833,8.2893 41.641,8.9511 42.41,9.5665 43.384,10.356 44.502,10.948 45.63,11.482 47.585,12.411 49.631,13.189 51.729,13.723 53.495,14.176 57.137,14.536 57.137,14.536 57.161,13.7 57.119,11.122 57.117,9.4156 57.113,6.5592 57.131,0.85747 57.131,0.85747 57.6,2.1928 59.026,7.848 59.397,9.1137 59.397,9.1137 62.799,7.6623 64.611,7.5694 66.132,7.4881 69.116,8.417 69.116,8.417 69.755,7.0701 71.996,1.8677 72.495,0.54397 72.46,3.4584 72.042,5.4091 71.833,7.848 71.647,10.054 71.299,14.478 71.299,14.478 71.299,14.478 72.727,14.374 73.424,14.257 75.549,13.909 77.697,13.538 79.729,12.852 81.517,12.249 83.305,11.552 84.872,10.507 86.196,9.6246 87.694,8.6957 88.367,7.2675 88.913,6.1063 88.971,4.6427 88.588,3.4236 88.228,2.3089 86.405,0.67169 86.405,0.67169 91.526,4.0041 96.623,8.1267 101.08,12.562 104.3,15.755 107.14,19.308 109.69,23.047 112.95,27.831 116.14,32.789 118.16,38.211 121.66,47.605 123.83,52.818 124.3,67.658 124.3,67.658 121.85,64.499 120.42,63.106 118.17,60.912 115.85,58.694 113.09,57.161 110.17,55.535 106.93,53.863 103.59,53.887 102.27,53.887 100.77,54.676 99.874,55.199 98.121,53.887 96.449,52.818 94.498,52.18 93.058,51.715 91.491,51.53 89.993,51.646 88.669,51.75 87.334,52.099 86.161,52.702 85.325,53.132 84.896,53.538 83.99,54.456 82.841,53.004 80.89,52.354 79.102,52.006 77.464,51.692 75.734,51.994 74.12,52.424 72.17,52.946 70.324,53.875 68.64,55.001 67.038,56.07 64.843,58.264 64.355,58.903 Z"
     id="1960-comics-title"
     inkscape:connector-curvature="0" />
</svg>
