<svg xmlns="http://www.w3.org/2000/svg" viewBox="0 0 800 800">
  <rect width="800" height="800" fill="none"/>
  
  <path d="M400,100 C566.3,100 700,233.7 700,400 C700,566.3 566.3,700 400,700 C233.7,700 100,566.3 100,400 C100,233.7 233.7,100 400,100 Z" stroke="black" stroke-width="8" fill="none"/>
  
  <path d="M400,120 C555.1,120 680,244.9 680,400 C680,555.1 555.1,680 400,680 C244.9,680 120,555.1 120,400 C120,244.9 244.9,120 400,120 Z" stroke="black" stroke-width="2" fill="none" stroke-dasharray="15 8 5 8"/>
  
  <circle cx="400" cy="400" r="200" stroke="black" stroke-width="30" fill="none" stroke-dasharray="20 10"/>
  
  <path d="M400,180 C521.5,180 620,278.5 620,400 C620,521.5 521.5,620 400,620 C278.5,620 180,521.5 180,400 C180,278.5 278.5,180 400,180 Z" stroke="black" stroke-width="5" fill="none" stroke-dasharray="3 2"/>

  <circle cx="400" cy="400" r="120" stroke="black" stroke-width="8" fill="none"/>

  <circle cx="400" cy="400" r="100" stroke="black" stroke-width="2" fill="none"/>
  
  <path d="M350,400 C350,372.4 372.4,350 400,350 C427.6,350 450,372.4 450,400 C450,427.6 427.6,450 400,450 C372.4,450 350,427.6 350,400 Z" fill="black"/>
  
  <path d="M400,300 L400,250 M400,500 L400,550 M300,400 L250,400 M500,400 L550,400 M350,350 L300,300 M450,350 L500,300 M350,450 L300,500 M450,450 L500,500" stroke="black" stroke-width="8" stroke-linecap="round"/>
  
  <path d="M270,400 C270,326.1 330.1,266 404,266 C477.9,266 538,326.1 538,400 C538,473.9 477.9,534 404,534 C330.1,534 270,473.9 270,400 Z" stroke="black" stroke-width="3" fill="none" stroke-dasharray="10 5"/>
  
  <circle cx="400" cy="400" r="250" stroke="black" stroke-width="0.5" fill="none" opacity="0.6"/>
  <circle cx="400" cy="400" r="270" stroke="black" stroke-width="0.4" fill="none" opacity="0.5"/>
  <circle cx="400" cy="400" r="290" stroke="black" stroke-width="0.3" fill="none" opacity="0.4"/>
  <circle cx="400" cy="400" r="310" stroke="black" stroke-width="0.2" fill="none" opacity="0.3"/>
  
</svg>
